<svg width="239" height="83" viewBox="0 0 239 83" fill="none" xmlns="http://www.w3.org/2000/svg">
<path d="M100.71 54.7349C98.9639 54.7349 97.3924 54.4356 95.9955 53.8369C94.5987 53.2133 93.5011 52.3403 92.7029 51.2178C91.9047 50.0953 91.5056 48.7858 91.5056 47.2891H96.0704C96.1701 48.4116 96.6067 49.3345 97.3799 50.0579C98.1781 50.7813 99.2881 51.143 100.71 51.143C102.182 51.143 103.329 50.7938 104.152 50.0953C104.975 49.372 105.387 48.449 105.387 47.3265C105.387 46.4535 105.125 45.7426 104.601 45.1938C104.102 44.645 103.466 44.221 102.693 43.9217C101.945 43.6223 100.897 43.2981 99.5501 42.9488C97.8539 42.4999 96.4695 42.0509 95.3969 41.6019C94.3492 41.1279 93.4512 40.4046 92.7029 39.4317C91.9546 38.4589 91.5804 37.1618 91.5804 35.5404C91.5804 34.0438 91.9546 32.7342 92.7029 31.6118C93.4512 30.4893 94.4989 29.6287 95.8459 29.03C97.1928 28.4314 98.7518 28.1321 100.523 28.1321C103.042 28.1321 105.1 28.7681 106.697 30.0403C108.318 31.2875 109.216 33.0086 109.391 35.2037H104.676C104.601 34.2558 104.152 33.4451 103.329 32.7717C102.506 32.0982 101.421 31.7614 100.074 31.7614C98.8516 31.7614 97.8539 32.0732 97.0806 32.6968C96.3073 33.3204 95.9207 34.2184 95.9207 35.3908C95.9207 36.189 96.1577 36.85 96.6316 37.3738C97.1305 37.8727 97.7541 38.2718 98.5024 38.5712C99.2507 38.8705 100.273 39.1948 101.571 39.544C103.292 40.0179 104.689 40.4919 105.761 40.9658C106.859 41.4397 107.782 42.1756 108.53 43.1733C109.303 44.1462 109.69 45.4557 109.69 47.102C109.69 48.4241 109.328 49.6713 108.605 50.8437C107.906 52.016 106.871 52.9639 105.499 53.6873C104.152 54.3857 102.556 54.7349 100.71 54.7349ZM119.699 37.3364V48.7484C119.699 49.5216 119.874 50.0829 120.223 50.4321C120.597 50.7564 121.221 50.9185 122.094 50.9185H124.713V54.473H121.346C119.425 54.473 117.953 54.024 116.93 53.126C115.908 52.2281 115.396 50.7688 115.396 48.7484V37.3364H112.964V33.8567H115.396V28.7307H119.699V33.8567H124.713V37.3364H119.699ZM137.587 54.8098C135.641 54.8098 133.883 54.3732 132.311 53.5002C130.74 52.6022 129.505 51.355 128.607 49.7586C127.709 48.1372 127.26 46.2664 127.26 44.1462C127.26 42.0509 127.721 40.1925 128.644 38.5712C129.567 36.9498 130.827 35.7026 132.423 34.8295C134.02 33.9565 135.803 33.52 137.774 33.52C139.744 33.52 141.528 33.9565 143.124 34.8295C144.721 35.7026 145.98 36.9498 146.903 38.5712C147.826 40.1925 148.288 42.0509 148.288 44.1462C148.288 46.2415 147.814 48.0998 146.866 49.7212C145.918 51.3425 144.621 52.6022 142.975 53.5002C141.353 54.3732 139.557 54.8098 137.587 54.8098ZM137.587 51.1056C138.684 51.1056 139.707 50.8437 140.655 50.3198C141.628 49.796 142.413 49.0103 143.012 47.9626C143.611 46.915 143.91 45.6428 143.91 44.1462C143.91 42.6495 143.623 41.3898 143.05 40.3671C142.476 39.3195 141.715 38.5337 140.767 38.0099C139.819 37.4861 138.797 37.2242 137.699 37.2242C136.601 37.2242 135.579 37.4861 134.631 38.0099C133.708 38.5337 132.972 39.3195 132.423 40.3671C131.875 41.3898 131.6 42.6495 131.6 44.1462C131.6 46.3662 132.161 48.0873 133.284 49.3096C134.431 50.5069 135.866 51.1056 137.587 51.1056ZM156.77 36.85C157.393 35.8024 158.217 34.9917 159.239 34.418C160.287 33.8193 161.522 33.52 162.944 33.52V37.9351H161.858C160.187 37.9351 158.915 38.3591 158.042 39.2072C157.194 40.0553 156.77 41.527 156.77 43.6223V54.473H152.504V33.8567H156.77V36.85ZM165.443 44.0713C165.443 42.001 165.867 40.1676 166.715 38.5712C167.588 36.9747 168.76 35.74 170.232 34.867C171.728 33.969 173.375 33.52 175.171 33.52C176.792 33.52 178.201 33.8443 179.399 34.4928C180.621 35.1164 181.594 35.9021 182.317 36.85V33.8567H186.62V54.473H182.317V51.4049C181.594 52.3777 180.609 53.1884 179.361 53.8369C178.114 54.4855 176.692 54.8098 175.096 54.8098C173.325 54.8098 171.703 54.3608 170.232 53.4628C168.76 52.5399 167.588 51.2677 166.715 49.6463C165.867 48 165.443 46.1417 165.443 44.0713ZM182.317 44.1462C182.317 42.7244 182.018 41.4896 181.419 40.442C180.846 39.3943 180.085 38.5961 179.137 38.0473C178.189 37.4986 177.166 37.2242 176.069 37.2242C174.971 37.2242 173.948 37.4986 173.001 38.0473C172.053 38.5712 171.279 39.3569 170.681 40.4045C170.107 41.4273 169.82 42.6495 169.82 44.0713C169.82 45.4931 170.107 46.7404 170.681 47.8129C171.279 48.8855 172.053 49.7087 173.001 50.2824C173.973 50.8312 174.996 51.1056 176.069 51.1056C177.166 51.1056 178.189 50.8312 179.137 50.2824C180.085 49.7336 180.846 48.9354 181.419 47.8878C182.018 46.8152 182.317 45.568 182.317 44.1462ZM200.529 33.52C202.125 33.52 203.535 33.8443 204.757 34.4928C206.004 35.1164 206.977 35.9021 207.675 36.85V33.8567H211.978V54.8098C211.978 56.7055 211.579 58.3892 210.781 59.8609C209.983 61.3576 208.823 62.53 207.301 63.3781C205.805 64.2262 204.009 64.6502 201.913 64.6502C199.12 64.6502 196.8 63.9892 194.954 62.6672C193.108 61.3701 192.06 59.599 191.811 57.3541H196.039C196.363 58.4267 197.049 59.2872 198.097 59.9358C199.169 60.6093 200.442 60.946 201.913 60.946C203.634 60.946 205.019 60.4222 206.067 59.3745C207.139 58.3269 207.675 56.8053 207.675 54.8098V51.3675C206.952 52.3403 205.967 53.1635 204.72 53.8369C203.497 54.4855 202.1 54.8098 200.529 54.8098C198.733 54.8098 197.087 54.3608 195.59 53.4628C194.118 52.5399 192.946 51.2677 192.073 49.6463C191.225 48 190.801 46.1417 190.801 44.0713C190.801 42.001 191.225 40.1676 192.073 38.5712C192.946 36.9747 194.118 35.74 195.59 34.867C197.087 33.969 198.733 33.52 200.529 33.52ZM207.675 44.1462C207.675 42.7244 207.376 41.4896 206.777 40.442C206.204 39.3943 205.443 38.5961 204.495 38.0473C203.547 37.4986 202.524 37.2242 201.427 37.2242C200.329 37.2242 199.307 37.4986 198.359 38.0473C197.411 38.5712 196.638 39.3569 196.039 40.4045C195.465 41.4273 195.178 42.6495 195.178 44.0713C195.178 45.4931 195.465 46.7404 196.039 47.8129C196.638 48.8855 197.411 49.7087 198.359 50.2824C199.332 50.8312 200.354 51.1056 201.427 51.1056C202.524 51.1056 203.547 50.8312 204.495 50.2824C205.443 49.7336 206.204 48.9354 206.777 47.8878C207.376 46.8152 207.675 45.568 207.675 44.1462ZM236.476 43.6598C236.476 44.433 236.426 45.1315 236.326 45.7551H220.574C220.699 47.4014 221.31 48.7234 222.407 49.7212C223.505 50.7189 224.852 51.2178 226.448 51.2178C228.743 51.2178 230.365 50.2575 231.312 48.3368H235.915C235.291 50.2325 234.156 51.7915 232.51 53.0138C230.888 54.2111 228.868 54.8098 226.448 54.8098C224.478 54.8098 222.707 54.3732 221.135 53.5002C219.589 52.6022 218.367 51.355 217.469 49.7586C216.595 48.1372 216.159 46.2664 216.159 44.1462C216.159 42.0259 216.583 40.1676 217.431 38.5712C218.304 36.9498 219.514 35.7026 221.06 34.8295C222.632 33.9565 224.428 33.52 226.448 33.52C228.394 33.52 230.128 33.944 231.649 34.7921C233.171 35.6402 234.356 36.8375 235.204 38.3841C236.052 39.9057 236.476 41.6642 236.476 43.6598ZM232.023 42.3128C231.998 40.7413 231.437 39.4816 230.34 38.5337C229.242 37.5859 227.883 37.1119 226.261 37.1119C224.79 37.1119 223.53 37.5859 222.482 38.5337C221.435 39.4567 220.811 40.7164 220.611 42.3128H232.023Z" fill="white"/>
<path d="M48.4168 6.91666H20.7502C18.9157 6.91666 17.1565 7.64537 15.8593 8.9425C14.5622 10.2396 13.8335 11.9989 13.8335 13.8333V69.1667C13.8335 71.0011 14.5622 72.7604 15.8593 74.0575C17.1565 75.3546 18.9157 76.0833 20.7502 76.0833H62.2502C64.0846 76.0833 65.8439 75.3546 67.141 74.0575C68.4381 72.7604 69.1668 71.0011 69.1668 69.1667V27.6667M48.4168 6.91666L69.1668 27.6667M48.4168 6.91666V27.6667H69.1668M31.1252 51.875H51.8752" stroke="white" stroke-width="4" stroke-linecap="round" stroke-linejoin="round"/>
</svg>
