<svg width="238" height="83" viewBox="0 0 238 83" fill="none" xmlns="http://www.w3.org/2000/svg">
<path d="M48.4166 6.91675H20.7499C18.9155 6.91675 17.1562 7.64547 15.8591 8.94259C14.562 10.2397 13.8333 11.999 13.8333 13.8334V69.1668C13.8333 71.0012 14.562 72.7604 15.8591 74.0576C17.1562 75.3547 18.9155 76.0834 20.7499 76.0834H62.2499C64.0843 76.0834 65.8436 75.3547 67.1407 74.0576C68.4379 72.7604 69.1666 71.0012 69.1666 69.1668V27.6667M48.4166 6.91675L69.1666 27.6667M48.4166 6.91675V27.6667H69.1666M31.1249 51.8751H51.8749" stroke="#51B3E8" stroke-width="6" stroke-linecap="round" stroke-linejoin="round"/>
<path d="M100.375 54.2619C98.6284 54.2619 97.0569 53.9626 95.6601 53.3639C94.2632 52.7403 93.1657 51.8673 92.3675 50.7448C91.5692 49.6223 91.1701 48.3127 91.1701 46.8161H95.7349C95.8347 47.9386 96.2712 48.8615 97.0445 49.5849C97.8427 50.3083 98.9527 50.67 100.375 50.67C101.846 50.67 102.994 50.3207 103.817 49.6223C104.64 48.8989 105.052 47.976 105.052 46.8535C105.052 45.9805 104.79 45.2696 104.266 44.7208C103.767 44.172 103.131 43.748 102.358 43.4486C101.609 43.1493 100.562 42.825 99.2146 42.4758C97.5184 42.0268 96.134 41.5778 95.0614 41.1288C94.0138 40.6549 93.1158 39.9315 92.3675 38.9587C91.6191 37.9859 91.245 36.6888 91.245 35.0674C91.245 33.5708 91.6191 32.2612 92.3675 31.1387C93.1158 30.0162 94.1634 29.1557 95.5104 28.557C96.8574 27.9584 98.4164 27.659 100.187 27.659C102.707 27.659 104.765 28.2951 106.361 29.5673C107.982 30.8145 108.88 32.5356 109.055 34.7307H104.341C104.266 33.7828 103.817 32.9721 102.994 32.2986C102.17 31.6251 101.085 31.2884 99.7384 31.2884C98.5162 31.2884 97.5184 31.6002 96.7451 32.2238C95.9719 32.8474 95.5852 33.7454 95.5852 34.9178C95.5852 35.716 95.8222 36.377 96.2961 36.9008C96.795 37.3997 97.4186 37.7988 98.167 38.0981C98.9153 38.3975 99.938 38.7217 101.235 39.071C102.956 39.5449 104.353 40.0188 105.426 40.4928C106.523 40.9667 107.446 41.7026 108.194 42.7003C108.968 43.6731 109.354 44.9827 109.354 46.629C109.354 47.9511 108.993 49.1983 108.269 50.3706C107.571 51.543 106.536 52.4909 105.164 53.2143C103.817 53.9127 102.22 54.2619 100.375 54.2619ZM119.364 36.8634V48.2753C119.364 49.0486 119.538 49.6098 119.888 49.9591C120.262 50.2833 120.885 50.4455 121.758 50.4455H124.378V54H121.01C119.089 54 117.618 53.551 116.595 52.653C115.572 51.755 115.061 50.2958 115.061 48.2753V36.8634H112.629V33.3837H115.061V28.2577H119.364V33.3837H124.378V36.8634H119.364ZM137.251 54.3367C135.306 54.3367 133.547 53.9002 131.976 53.0272C130.404 52.1292 129.169 50.882 128.271 49.2856C127.373 47.6642 126.924 45.7934 126.924 43.6731C126.924 41.5778 127.386 39.7195 128.309 38.0981C129.232 36.4768 130.491 35.2296 132.088 34.3565C133.684 33.4835 135.468 33.047 137.438 33.047C139.409 33.047 141.193 33.4835 142.789 34.3565C144.385 35.2296 145.645 36.4768 146.568 38.0981C147.491 39.7195 147.952 41.5778 147.952 43.6731C147.952 45.7684 147.478 47.6268 146.531 49.2481C145.583 50.8695 144.286 52.1292 142.639 53.0272C141.018 53.9002 139.222 54.3367 137.251 54.3367ZM137.251 50.6325C138.349 50.6325 139.372 50.3706 140.319 49.8468C141.292 49.323 142.078 48.5372 142.677 47.4896C143.275 46.4419 143.575 45.1698 143.575 43.6731C143.575 42.1765 143.288 40.9168 142.714 39.8941C142.14 38.8465 141.38 38.0607 140.432 37.5369C139.484 37.0131 138.461 36.7512 137.364 36.7512C136.266 36.7512 135.243 37.0131 134.295 37.5369C133.373 38.0607 132.637 38.8465 132.088 39.8941C131.539 40.9168 131.265 42.1765 131.265 43.6731C131.265 45.8932 131.826 47.6143 132.948 48.8366C134.096 50.0339 135.53 50.6325 137.251 50.6325ZM156.434 36.377C157.058 35.3293 157.881 34.5187 158.904 33.9449C159.952 33.3463 161.186 33.047 162.608 33.047V37.4621H161.523C159.852 37.4621 158.58 37.8861 157.707 38.7342C156.858 39.5823 156.434 41.054 156.434 43.1493V54H152.169V33.3837H156.434V36.377ZM165.107 43.5983C165.107 41.5279 165.531 39.6946 166.379 38.0981C167.252 36.5017 168.425 35.267 169.896 34.3939C171.393 33.4959 173.039 33.047 174.835 33.047C176.457 33.047 177.866 33.3712 179.063 34.0198C180.286 34.6434 181.258 35.4291 181.982 36.377V33.3837H186.285V54H181.982V50.9319C181.258 51.9047 180.273 52.7154 179.026 53.3639C177.779 54.0125 176.357 54.3367 174.76 54.3367C172.989 54.3367 171.368 53.8878 169.896 52.9898C168.425 52.0668 167.252 50.7947 166.379 49.1733C165.531 47.527 165.107 45.6687 165.107 43.5983ZM181.982 43.6731C181.982 42.2513 181.682 41.0166 181.084 39.9689C180.51 38.9213 179.749 38.1231 178.801 37.5743C177.854 37.0255 176.831 36.7512 175.733 36.7512C174.636 36.7512 173.613 37.0255 172.665 37.5743C171.717 38.0981 170.944 38.8839 170.345 39.9315C169.772 40.9542 169.485 42.1765 169.485 43.5983C169.485 45.0201 169.772 46.2673 170.345 47.3399C170.944 48.4125 171.717 49.2357 172.665 49.8094C173.638 50.3582 174.661 50.6325 175.733 50.6325C176.831 50.6325 177.854 50.3582 178.801 49.8094C179.749 49.2606 180.51 48.4624 181.084 47.4148C181.682 46.3422 181.982 45.095 181.982 43.6731ZM200.193 33.047C201.79 33.047 203.199 33.3712 204.422 34.0198C205.669 34.6434 206.642 35.4291 207.34 36.377V33.3837H211.643V54.3367C211.643 56.2325 211.244 57.9162 210.446 59.3879C209.647 60.8846 208.487 62.0569 206.966 62.905C205.469 63.7531 203.673 64.1772 201.578 64.1772C198.784 64.1772 196.464 63.5162 194.618 62.1941C192.773 60.897 191.725 59.126 191.476 56.881H195.704C196.028 57.9536 196.714 58.8142 197.761 59.4628C198.834 60.1362 200.106 60.473 201.578 60.473C203.299 60.473 204.683 59.9492 205.731 58.9015C206.804 57.8539 207.34 56.3323 207.34 54.3367V50.8945C206.617 51.8673 205.631 52.6904 204.384 53.3639C203.162 54.0125 201.765 54.3367 200.193 54.3367C198.398 54.3367 196.751 53.8878 195.255 52.9898C193.783 52.0668 192.61 50.7947 191.737 49.1733C190.889 47.527 190.465 45.6687 190.465 43.5983C190.465 41.5279 190.889 39.6946 191.737 38.0981C192.61 36.5017 193.783 35.267 195.255 34.3939C196.751 33.4959 198.398 33.047 200.193 33.047ZM207.34 43.6731C207.34 42.2513 207.041 41.0166 206.442 39.9689C205.868 38.9213 205.107 38.1231 204.16 37.5743C203.212 37.0255 202.189 36.7512 201.091 36.7512C199.994 36.7512 198.971 37.0255 198.023 37.5743C197.075 38.0981 196.302 38.8839 195.704 39.9315C195.13 40.9542 194.843 42.1765 194.843 43.5983C194.843 45.0201 195.13 46.2673 195.704 47.3399C196.302 48.4125 197.075 49.2357 198.023 49.8094C198.996 50.3582 200.019 50.6325 201.091 50.6325C202.189 50.6325 203.212 50.3582 204.16 49.8094C205.107 49.2606 205.868 48.4624 206.442 47.4148C207.041 46.3422 207.34 45.095 207.34 43.6731ZM236.14 43.1867C236.14 43.96 236.091 44.6584 235.991 45.282H220.239C220.363 46.9283 220.974 48.2504 222.072 49.2481C223.17 50.2459 224.517 50.7448 226.113 50.7448C228.408 50.7448 230.029 49.7844 230.977 47.8638H235.579C234.956 49.7595 233.821 51.3185 232.174 52.5408C230.553 53.7381 228.533 54.3367 226.113 54.3367C224.142 54.3367 222.371 53.9002 220.8 53.0272C219.253 52.1292 218.031 50.882 217.133 49.2856C216.26 47.6642 215.823 45.7934 215.823 43.6731C215.823 41.5529 216.248 39.6946 217.096 38.0981C217.969 36.4768 219.178 35.2296 220.725 34.3565C222.296 33.4835 224.092 33.047 226.113 33.047C228.059 33.047 229.792 33.471 231.314 34.3191C232.835 35.1672 234.02 36.3645 234.868 37.9111C235.716 39.4326 236.14 41.1912 236.14 43.1867ZM231.688 41.8398C231.663 40.2683 231.102 39.0086 230.004 38.0607C228.907 37.1128 227.547 36.6389 225.926 36.6389C224.454 36.6389 223.194 37.1128 222.147 38.0607C221.099 38.9837 220.476 40.2433 220.276 41.8398H231.688Z" fill="#51B3E8"/>
</svg>
